HIERARCHY
ROOT Hips
{
    OFFSET 0.000000 0.000000 0.000000
    CHANNELS 6 Xposition Yposition Zposition Zrotation Xrotation Yrotation
    JOINT Chest
    {
        OFFSET -0.000000 0.078597 0.000000
        CHANNELS 3 Zrotation Xrotation Yrotation
        JOINT Chest2
        {
            OFFSET -0.000000 0.230468 0.000000
            CHANNELS 3 Zrotation Xrotation Yrotation
            JOINT Neck
            {
                OFFSET -0.000000 0.249638 0.000000
                CHANNELS 3 Zrotation Xrotation Yrotation
                JOINT Head
                {
                    OFFSET -0.000000 0.103998 0.019170
                    CHANNELS 3 Zrotation Xrotation Yrotation
                    End Site
                    {
                        OFFSET -0.000000 0.191701 0.000000
                    }
                }
            }
            JOINT LeftCollar
            {
                OFFSET 0.038274 0.205938 -0.001496
                CHANNELS 3 Zrotation Xrotation Yrotation
                JOINT LeftShoulder
                {
                    OFFSET 0.132388 0.000000 0.000000
                    CHANNELS 3 Zrotation Xrotation Yrotation
                    JOINT LeftElbow
                    {
                        OFFSET 0.250301 0.000000 0.000000
                        CHANNELS 3 Zrotation Xrotation Yrotation
                        JOINT LeftWrist
                        {
                            OFFSET 0.285291 0.000000 0.000000
                            CHANNELS 3 Zrotation Xrotation Yrotation
                            End Site
                            {
                                OFFSET 0.000000 -0.143776 0.000000
                            }
                        }
                    }
                }
            }
            JOINT RightCollar
            {
                OFFSET -0.038406 0.205938 -0.001496
                CHANNELS 3 Zrotation Xrotation Yrotation
                JOINT RightShoulder
                {
                    OFFSET -0.132388 0.000000 0.000000
                    CHANNELS 3 Zrotation Xrotation Yrotation
                    JOINT RightElbow
                    {
                        OFFSET -0.250301 0.000000 0.000000
                        CHANNELS 3 Zrotation Xrotation Yrotation
                        JOINT RightWrist
                        {
                            OFFSET -0.285291 0.000000 0.000000
                            CHANNELS 3 Zrotation Xrotation Yrotation
                            End Site
                            {
                                OFFSET -0.000000 -0.143776 0.000000
                            }
                        }
                    }
                }
            }
        }
    }
    JOINT LeftHip
    {
        OFFSET 0.095851 0.000000 0.000000
        CHANNELS 3 Zrotation Xrotation Yrotation
        JOINT LeftKnee
        {
            OFFSET -0.000000 -0.406444 0.000000
            CHANNELS 3 Zrotation Xrotation Yrotation
            JOINT LeftAnkle
            {
                OFFSET -0.000000 -0.408443 0.000000
                CHANNELS 3 Zrotation Xrotation Yrotation
                JOINT LeftToe
                {
                    OFFSET -0.000000 -0.062303 0.143776
                    CHANNELS 3 Zrotation Xrotation Yrotation
                    End Site
                    {
                        OFFSET -0.000000 0.000000 0.038340
                    }
                }
            }
        }
    }
    JOINT RightHip
    {
        OFFSET -0.095851 0.000000 0.000000
        CHANNELS 3 Zrotation Xrotation Yrotation
        JOINT RightKnee
        {
            OFFSET -0.000000 -0.406444 0.000000
            CHANNELS 3 Zrotation Xrotation Yrotation
            JOINT RightAnkle
            {
                OFFSET -0.000000 -0.408443 0.000000
                CHANNELS 3 Zrotation Xrotation Yrotation
                JOINT RightToe
                {
                    OFFSET -0.000000 -0.062303 0.143776
                    CHANNELS 3 Zrotation Xrotation Yrotation
                    End Site
                    {
                        OFFSET -0.000000 0.000000 0.038340
                    }
                }
            }
        }
    }
}
MOTION
Frames:    7
Frame Time:    0.016667
0.040760    0.876523    0.241444    -0.889752    4.828553    -147.147507    2.584532    6.681530    8.427008    -5.336845    5.661051    3.123991    3.626057    5.902431    -10.023840    3.570550    12.794814    -10.522408    10.308495    -0.749229    -25.474119    -48.345165    62.691116    -27.147482    -8.836828    -4.307550    -21.514828    105.507225    -28.129251    9.890144    -5.644120    -19.005926    29.461870    41.181046    51.342144    49.390995    12.796792    -6.749754    94.524513    -61.975002    -3.405404    -19.454235    6.772790    2.151745    4.329017    -8.692145    16.131226    22.532049    -3.957258    -20.182308    11.825908    0.000000    0.000000    0.000000    -13.834962    -8.546029    -8.895997    18.551981    37.882977    -11.925421    5.625626    -15.139554    -13.090151    0.000000    0.000000    0.000000    
0.039459    0.876784    0.236921    -0.739774    4.919148    -146.799118    2.654537    6.644720    8.436802    -5.433184    5.797581    3.139704    3.700802    5.873137    -10.043235    3.697294    12.642643    -10.554766    10.350475    -0.584615    -25.511694    -48.564693    62.303905    -26.787344    -8.992756    -4.402605    -21.653311    105.729378    -28.184757    10.090577    -5.501037    -18.862104    29.452135    40.609665    51.640625    49.949852    12.404895    -7.283529    94.579124    -64.095695    -2.996132    -19.723145    7.086601    2.464551    4.179630    -8.700898    15.987123    22.188017    -4.069424    -20.261135    11.969927    0.000000    0.000000    0.000000    -14.175549    -8.691616    -8.579416    17.806738    35.807987    -11.869734    6.086502    -14.458503    -12.751681    0.000000    0.000000    0.000000    
0.038519    0.876752    0.232405    -0.609671    4.964282    -146.423813    2.620622    6.660531    8.424386    -5.349507    5.844992    3.133032    3.655916    5.914696    -10.082602    3.734004    12.499318    -10.606466    10.311042    -0.444688    -25.561857    -48.662663    62.469040    -26.773359    -9.115347    -4.999093    -21.545786    106.701141    -28.288284    10.964655    -5.448292    -18.778961    29.515623    40.536648    51.566250    49.949055    12.467405    -7.196162    94.592522    -64.458008    -2.810737    -19.760731    7.314054    2.666814    4.055395    -8.548748    15.953053    22.054316    -4.363288    -20.380018    11.812514    0.000000    0.000000    0.000000    -14.559646    -8.911851    -8.124595    17.166452    33.718067    -11.614512    5.770503    -13.518348    -12.914992    0.000000    0.000000    0.000000    
0.037784    0.876505    0.227759    -0.497159    4.940377    -146.056961    2.589046    6.682413    8.382011    -5.327491    5.818202    3.116152    3.573373    5.972293    -10.098356    3.837595    12.414801    -10.657690    10.273767    -0.287401    -25.488293    -48.997437    62.385921    -26.453707    -9.248409    -5.264699    -21.589170    107.237419    -28.136820    11.371912    -5.358228    -18.748697    29.564375    40.542198    51.577236    49.983898    12.451223    -7.078584    94.496048    -64.708549    -2.705926    -19.641003    7.524073    2.863528    3.892521    -8.469645    15.822064    22.064619    -4.593377    -20.510723    11.618320    0.000000    0.000000    0.000000    -14.919460    -9.183640    -7.274504    16.432140    31.414839    -11.703421    6.589908    -12.963226    -12.837931    0.000000    0.000000    0.000000    
0.037343    0.876141    0.222801    -0.416258    4.934084    -145.671753    2.546834    6.730373    8.370009    -5.323561    5.812883    3.111217    3.531110    6.127325    -10.101460    4.032979    12.186798    -10.701780    10.325349    -0.268383    -25.446196    -49.473297    62.315323    -26.132902    -9.653575    -5.571116    -21.559067    108.501770    -28.048025    12.060677    -5.305390    -18.615314    29.573282    40.482059    51.721603    49.723633    11.630170    -7.827073    95.191559    -61.247986    3.263481    -21.086414    7.802229    2.999394    3.771454    -8.428689    15.888003    22.378466    -5.051399    -20.612770    10.946958    0.000000    0.000000    0.000000    -15.369996    -9.344621    -6.339749    15.862168    28.976353    -11.742675    6.597562    -11.877660    -12.728642    0.000000    0.000000    0.000000    
0.037061    0.875831    0.217605    -0.321356    4.807144    -145.316513    2.429335    6.693304    8.399253    -5.303815    5.796085    3.116526    3.650604    6.099082    -10.192523    3.955933    12.114937    -10.754024    10.432814    -0.178530    -25.433865    -49.741257    62.455193    -26.020588    -9.634776    -5.868335    -21.633875    108.960861    -27.733515    12.421629    -5.168077    -18.627172    29.550455    40.288212    51.869350    50.090786    12.444724    -7.348646    94.661842    -64.256058    -2.816866    -19.890022    8.030890    3.105014    3.717467    -8.374569    15.825019    22.145306    -5.328605    -20.700287    10.854117    0.000000    0.000000    0.000000    -15.740085    -9.663810    -5.747757    14.647169    26.727896    -11.150358    7.633788    -10.775990    -12.277591    0.000000    0.000000    0.000000    
0.037257    0.875499    0.212009    -0.289862    4.701651    -144.864197    2.211249    6.483015    8.409651    -5.041312    6.177813    3.117738    3.431472    6.122151    -10.271912    4.213147    11.786289    -10.923795    10.516294    -0.266634    -25.538305    -50.178711    62.226738    -25.701590    -9.774924    -5.970416    -21.832262    109.637901    -27.675791    12.728539    -5.323701    -18.535370    29.348347    39.787148    51.753860    50.552582    12.257057    -7.472058    94.671585    -64.037216    -2.788651    -19.813925    8.323524    3.188447    3.578741    -8.398565    15.889071    21.843584    -5.713548    -20.746065    10.762374    0.000000    0.000000    0.000000    -16.024357    -9.941310    -5.346461    13.204267    24.587734    -10.531693    8.528715    -9.242778    -12.031710    0.000000    0.000000    0.000000    
